<svg width="25" height="25" viewBox="0 0 25 25" fill="none" xmlns="http://www.w3.org/2000/svg">
<path d="M18.1025 7.5325L18.925 10H15V6.25H16.3237C16.7173 6.25004 17.1009 6.37392 17.4202 6.6041C17.7394 6.83429 17.9781 7.15909 18.1025 7.5325ZM19.3412 11.25L19.345 11.2625L19.6775 11.345L19.83 11.3825C20.2358 11.484 20.596 11.7183 20.8533 12.0481C21.1106 12.3779 21.2502 12.7842 21.25 13.2025V15.3125C21.25 15.5125 21.1875 15.7 21.0788 15.8525C20.855 15.2046 20.4245 14.6483 19.8536 14.2691C19.2826 13.89 18.6028 13.7091 17.9189 13.7542C17.2349 13.7994 16.5849 14.0682 16.0687 14.5192C15.5526 14.9702 15.199 15.5783 15.0625 16.25H9.9375C9.80098 15.5783 9.44742 14.9702 8.93128 14.5192C8.41514 14.0682 7.76505 13.7994 7.08114 13.7542C6.39723 13.7091 5.71742 13.89 5.14644 14.2691C4.57545 14.6483 4.14495 15.2046 3.92125 15.8525C3.80962 15.6946 3.74979 15.5059 3.75 15.3125V13.7963C3.74986 13.3829 3.88631 12.9811 4.13814 12.6533C4.38997 12.3255 4.74306 12.0901 5.1425 11.9838L7.895 11.25H19.3412ZM8.91 10L10.4575 7.215C10.6197 6.92282 10.857 6.6793 11.1449 6.50963C11.4328 6.33997 11.7608 6.25033 12.095 6.25H13.75V10H8.91ZM2.5 15.3125C2.5 16.1963 3.025 16.9575 3.77875 17.3025C3.87885 18.0338 4.23461 18.7061 4.78298 19.2003C5.33136 19.6944 6.03694 19.9785 6.77472 20.0021C7.5125 20.0258 8.23484 19.7875 8.81374 19.3295C9.39265 18.8715 9.79075 18.2234 9.9375 17.5H15.0625C15.2093 18.2234 15.6074 18.8715 16.1863 19.3295C16.7652 19.7875 17.4875 20.0258 18.2253 20.0021C18.9631 19.9785 19.6686 19.6944 20.217 19.2003C20.7654 18.7061 21.1211 18.0338 21.2212 17.3025C21.6027 17.1283 21.9261 16.8481 22.1528 16.4953C22.3795 16.1424 22.5 15.7319 22.5 15.3125V13.2025C22.5 12.5382 22.2883 11.8911 21.8957 11.3552C21.503 10.8194 20.9497 10.4226 20.3162 10.2225L19.2875 7.13625C19.0801 6.51447 18.6825 5.97364 18.1508 5.59027C17.6192 5.20691 16.9805 5.00041 16.325 5H12.0963C11.5386 4.99966 10.991 5.14854 10.5103 5.4312C10.0296 5.71387 9.6333 6.12001 9.3625 6.6075L7.4375 10.0788L4.82125 10.7763C4.15559 10.9534 3.56711 11.3456 3.14733 11.8917C2.72754 12.4379 2.49997 13.1074 2.5 13.7963V15.3125ZM18.125 15C18.6223 15 19.0992 15.1975 19.4508 15.5492C19.8025 15.9008 20 16.3777 20 16.875C20 17.3723 19.8025 17.8492 19.4508 18.2008C19.0992 18.5525 18.6223 18.75 18.125 18.75C17.6277 18.75 17.1508 18.5525 16.7992 18.2008C16.4475 17.8492 16.25 17.3723 16.25 16.875C16.25 16.3777 16.4475 15.9008 16.7992 15.5492C17.1508 15.1975 17.6277 15 18.125 15ZM6.875 15C7.37228 15 7.84919 15.1975 8.20083 15.5492C8.55246 15.9008 8.75 16.3777 8.75 16.875C8.75 17.3723 8.55246 17.8492 8.20083 18.2008C7.84919 18.5525 7.37228 18.75 6.875 18.75C6.37772 18.75 5.90081 18.5525 5.54917 18.2008C5.19754 17.8492 5 17.3723 5 16.875C5 16.3777 5.19754 15.9008 5.54917 15.5492C5.90081 15.1975 6.37772 15 6.875 15Z" fill="#EFA35A"/>
</svg>
