<svg width="35" height="35" viewBox="0 0 35 35" fill="none" xmlns="http://www.w3.org/2000/svg">
<circle cx="17.5" cy="17.5" r="17.5" fill="url(#paint0_linear_363_3930)"/>
<path d="M16.4365 16.8018H17.5967C18.165 16.8018 18.6338 16.708 19.0029 16.5205C19.3779 16.3271 19.6562 16.0664 19.8379 15.7383C20.0254 15.4043 20.1191 15.0293 20.1191 14.6133C20.1191 14.1211 20.0371 13.708 19.873 13.374C19.709 13.04 19.4629 12.7881 19.1348 12.6182C18.8066 12.4482 18.3906 12.3633 17.8867 12.3633C17.4297 12.3633 17.0254 12.4541 16.6738 12.6357C16.3281 12.8115 16.0557 13.0635 15.8564 13.3916C15.6631 13.7197 15.5664 14.1064 15.5664 14.5518H13.9404C13.9404 13.9014 14.1045 13.3096 14.4326 12.7764C14.7607 12.2432 15.2207 11.8184 15.8125 11.502C16.4102 11.1855 17.1016 11.0273 17.8867 11.0273C18.6602 11.0273 19.3369 11.165 19.917 11.4404C20.4971 11.71 20.9482 12.1143 21.2705 12.6533C21.5928 13.1865 21.7539 13.8516 21.7539 14.6484C21.7539 14.9707 21.6777 15.3164 21.5254 15.6855C21.3789 16.0488 21.1475 16.3887 20.8311 16.7051C20.5205 17.0215 20.1162 17.2822 19.6182 17.4873C19.1201 17.6865 18.5225 17.7861 17.8252 17.7861H16.4365V16.8018ZM16.4365 18.1377V17.1621H17.8252C18.6396 17.1621 19.3135 17.2588 19.8467 17.4521C20.3799 17.6455 20.7988 17.9033 21.1035 18.2256C21.4141 18.5479 21.6309 18.9023 21.7539 19.2891C21.8828 19.6699 21.9473 20.0508 21.9473 20.4316C21.9473 21.0293 21.8447 21.5596 21.6396 22.0225C21.4404 22.4854 21.1562 22.8779 20.7871 23.2002C20.4238 23.5225 19.9961 23.7656 19.5039 23.9297C19.0117 24.0938 18.4756 24.1758 17.8955 24.1758C17.3389 24.1758 16.8145 24.0967 16.3223 23.9385C15.8359 23.7803 15.4053 23.5518 15.0303 23.2529C14.6553 22.9482 14.3623 22.5762 14.1514 22.1367C13.9404 21.6914 13.835 21.1846 13.835 20.6162H15.4609C15.4609 21.0615 15.5576 21.4512 15.751 21.7852C15.9502 22.1191 16.2314 22.3799 16.5947 22.5674C16.9639 22.749 17.3975 22.8398 17.8955 22.8398C18.3936 22.8398 18.8213 22.7549 19.1787 22.585C19.542 22.4092 19.8203 22.1455 20.0137 21.7939C20.2129 21.4424 20.3125 21 20.3125 20.4668C20.3125 19.9336 20.2012 19.4971 19.9785 19.1572C19.7559 18.8115 19.4395 18.5566 19.0293 18.3926C18.625 18.2227 18.1475 18.1377 17.5967 18.1377H16.4365Z" fill="white"/>
<defs>
<linearGradient id="paint0_linear_363_3930" x1="17.5" y1="0" x2="17.5" y2="35" gradientUnits="userSpaceOnUse">
<stop stop-color="#FF7E00"/>
<stop offset="1" stop-color="#EFA35A"/>
</linearGradient>
</defs>
</svg>
