<svg width="45" height="45" viewBox="0 0 45 45" fill="none" xmlns="http://www.w3.org/2000/svg">
<path d="M36.4707 14.9977C36.6748 14.3196 36.4707 13.8223 35.5053 13.8223H32.3071C31.4934 13.8223 31.1215 14.2525 30.9173 14.725C30.9173 14.725 29.2913 18.6902 26.9871 21.2612C26.2434 22.0093 25.9036 22.2456 25.4982 22.2456C25.2955 22.2456 25.0009 22.0093 25.0009 21.3312V14.9977C25.0009 14.1839 24.7661 13.8223 24.088 13.8223H19.0626C18.5551 13.8223 18.2488 14.1985 18.2488 14.5573C18.2488 15.3273 19.4009 15.5052 19.519 17.6752V22.3827C19.519 23.4137 19.3338 23.6018 18.9255 23.6018C17.8419 23.6018 15.2053 19.6221 13.6405 15.0662C13.3357 14.181 13.028 13.8237 12.2113 13.8237H9.01464C8.10026 13.8237 7.91797 14.2539 7.91797 14.7264C7.91797 15.5752 9.00151 19.7752 12.9653 25.33C15.6078 29.1231 19.328 31.1793 22.7171 31.1793C24.7486 31.1793 24.9994 30.7229 24.9994 29.9354V27.0683C24.9994 26.1554 25.1934 25.9716 25.8365 25.9716C26.309 25.9716 27.1228 26.2108 29.0201 28.0381C31.1871 30.2052 31.5459 31.1779 32.7636 31.1779H35.9603C36.8732 31.1779 37.3296 30.7214 37.0671 29.8202C36.7798 28.9233 35.7444 27.6181 34.3707 26.0737C33.624 25.1929 32.5084 24.245 32.1686 23.771C31.6946 23.16 31.8317 22.8902 32.1686 22.3477C32.1701 22.3491 36.0653 16.8629 36.4707 14.9977Z" fill="white"/>
<path d="M0.75 0.75H44.25V44.25H0.75V0.75Z" stroke="white" stroke-width="1.5"/>
</svg>
