<svg width="35" height="35" viewBox="0 0 35 35" fill="none" xmlns="http://www.w3.org/2000/svg">
<circle cx="17.5" cy="17.5" r="17.5" fill="url(#paint0_linear_363_3912)"/>
<path d="M22.4482 22.6641V24H14.0723V22.8311L18.2646 18.1641C18.7803 17.5898 19.1787 17.1035 19.46 16.7051C19.7471 16.3008 19.9463 15.9404 20.0576 15.624C20.1748 15.3018 20.2334 14.9736 20.2334 14.6396C20.2334 14.2178 20.1455 13.8369 19.9697 13.4971C19.7998 13.1514 19.5479 12.876 19.2139 12.6709C18.8799 12.4658 18.4756 12.3633 18.001 12.3633C17.4326 12.3633 16.958 12.4746 16.5771 12.6973C16.2021 12.9141 15.9209 13.2188 15.7334 13.6113C15.5459 14.0039 15.4521 14.4551 15.4521 14.9648H13.8262C13.8262 14.2441 13.9844 13.585 14.3008 12.9873C14.6172 12.3896 15.0859 11.915 15.707 11.5635C16.3281 11.2061 17.0928 11.0273 18.001 11.0273C18.8096 11.0273 19.501 11.1709 20.0752 11.458C20.6494 11.7393 21.0889 12.1377 21.3936 12.6533C21.7041 13.1631 21.8594 13.7607 21.8594 14.4463C21.8594 14.8213 21.7949 15.2021 21.666 15.5889C21.543 15.9697 21.3701 16.3506 21.1475 16.7314C20.9307 17.1123 20.6758 17.4873 20.3828 17.8564C20.0957 18.2256 19.7881 18.5889 19.46 18.9463L16.0322 22.6641H22.4482Z" fill="white"/>
<defs>
<linearGradient id="paint0_linear_363_3912" x1="17.5" y1="0" x2="17.5" y2="35" gradientUnits="userSpaceOnUse">
<stop stop-color="#FF7E00"/>
<stop offset="1" stop-color="#EFA35A"/>
</linearGradient>
</defs>
</svg>
