<svg width="45" height="45" viewBox="0 0 45 45" fill="none" xmlns="http://www.w3.org/2000/svg">
<path d="M43.5 1.5V43.5H1.5V1.5H43.5ZM45 0H0V45H45V0Z" fill="white"/>
<path d="M43.5 1.5V43.5H1.5V1.5H43.5ZM45 0H0V45H45V0Z" fill="white"/>
<path d="M35.8237 16.7033C35.8237 16.7033 35.5583 14.7038 34.7438 13.8233C33.7087 12.6698 32.5508 12.6623 32.0198 12.5963C28.2143 12.3008 22.5067 12.3008 22.5067 12.3008H22.4933C22.4933 12.3008 16.7858 12.3008 12.9818 12.5963C12.4508 12.6623 11.2928 12.6683 10.2578 13.8233C9.44325 14.7038 9.17775 16.7033 9.17775 16.7033C9.17775 16.7033 8.90625 19.0493 8.90625 21.3968V23.5958C8.90625 25.9448 9.17775 28.2908 9.17775 28.2908C9.17775 28.2908 9.44325 30.2903 10.2578 31.1693C11.2928 32.3228 12.6503 32.2883 13.2563 32.4098C15.4313 32.6318 22.5007 32.7008 22.5007 32.7008C22.5007 32.7008 28.2143 32.6903 32.0198 32.3993C32.5508 32.3318 33.7087 32.3243 34.7438 31.1708C35.5583 30.2918 35.8237 28.2923 35.8237 28.2923C35.8237 28.2923 36.0952 25.9448 36.0952 23.5973V21.3983C36.0952 19.0493 35.8237 16.7033 35.8237 16.7033ZM19.1048 27.6008V17.4008L27.6038 22.5008L19.1048 27.6008Z" fill="white"/>
</svg>
