<svg width="45" height="45" viewBox="0 0 45 45" fill="none" xmlns="http://www.w3.org/2000/svg">
<path d="M42.1875 2.8125V42.1875H2.8125V2.8125H42.1875ZM43.5938 1.40625H1.40625V43.5938H43.5938V1.40625Z" fill="white"/>
<path d="M42.1875 2.8125V42.1875H2.8125V2.8125H42.1875ZM43.5938 1.40625H1.40625V43.5938H43.5938V1.40625Z" fill="white"/>
<path d="M33.5697 31.6744V23.4872C33.5697 19.1011 31.2283 17.0592 28.1064 17.0592C25.5864 17.0592 24.4586 18.4458 23.8286 19.4175V17.3953H19.0825C19.1458 18.7355 19.0825 31.6744 19.0825 31.6744H23.8286V23.6995C23.8286 23.2734 23.8595 22.8473 23.9847 22.5422C24.3278 21.69 25.1083 20.8069 26.4189 20.8069C28.1373 20.8069 28.8236 22.1161 28.8236 24.0356V31.6758L33.5697 31.6744ZM14.0833 15.4463C15.7384 15.4463 16.7692 14.3494 16.7692 12.9783C16.7383 11.5777 15.7384 10.5117 14.1156 10.5117C12.4928 10.5117 11.4297 11.5777 11.4297 12.9783C11.4297 14.3494 12.4605 15.4463 14.0538 15.4463H14.0833ZM16.4556 31.6744V17.3953H11.7095V31.6744H16.4556Z" fill="#EFA359"/>
</svg>
