<svg width="45" height="45" viewBox="0 0 45 45" fill="none" xmlns="http://www.w3.org/2000/svg">
<path d="M42.1875 2.8125V42.1875H2.8125V2.8125H42.1875ZM43.5938 1.40625H1.40625V43.5938H43.5938V1.40625Z" fill="white"/>
<path d="M42.1875 2.8125V42.1875H2.8125V2.8125H42.1875ZM43.5938 1.40625H1.40625V43.5938H43.5938V1.40625Z" fill="white"/>
<path d="M22.7303 9.68555V15.679H28.7238V19.4252H22.7303V25.4187C22.7303 26.8109 22.8625 27.9288 23.0102 28.324C23.1578 28.7177 23.4306 29.0327 23.8328 29.2704C24.3658 29.5896 24.9719 29.7499 25.6567 29.7499C26.8731 29.7499 28.2864 29.3365 29.4733 28.4154V32.1616C28.4748 32.786 27.3288 33.1741 26.4963 33.3682C25.6652 33.5609 24.7652 33.6593 23.7977 33.6593C22.7866 33.6593 21.8106 33.5482 20.8867 33.243C20.043 32.966 19.5719 32.658 18.9742 32.1476C18.3794 31.6343 18.0897 31.1182 17.8591 30.5388C17.6284 29.9623 17.485 28.7641 17.485 27.6659V19.4252H14.4883V15.679C15.4473 15.6087 16.2419 15.3387 16.9113 14.7677C17.5863 14.194 18.1263 13.5063 18.5312 12.7048C18.9391 11.9018 18.9841 10.9188 18.9841 9.68555H22.7303Z" fill="white"/>
</svg>
