<svg width="232" height="199" viewBox="0 0 232 199" fill="none" xmlns="http://www.w3.org/2000/svg">
<g clip-path="url(#clip0_363_4102)">
<path fill-rule="evenodd" clip-rule="evenodd" d="M0.242188 71.9927L0.278624 72.0348C0.907155 71.6952 1.4537 70.936 1.96951 70.4425C3.15142 69.3095 5.63024 67.0628 6.63111 66.0073C7.55341 65.035 8.71369 64.0662 9.53579 63.2307L11.1993 61.5779C11.3792 61.4024 11.4897 61.3465 11.6605 61.1847C11.8347 61.0194 11.7129 61.1231 11.8393 60.9863C11.993 60.8199 11.8495 60.9533 12.0294 60.7982C12.4052 60.4757 12.4792 60.3377 12.8344 59.9958L17.8502 55.1594C18.1826 54.8688 18.3637 54.6659 18.6723 54.3684L26.62 46.7781C26.8101 46.5969 26.776 46.5752 26.9889 46.3917L29.5133 43.9901C30.3069 43.1933 31.1347 42.2917 32.0194 41.5702L33.6306 39.9607C33.9506 39.6404 34.2067 39.4865 34.5324 39.1571L36.6059 37.1544C36.7095 37.0564 36.8268 36.9128 36.9805 36.7748L38.6486 35.1266C38.9537 34.8314 39.1917 34.6832 39.5026 34.3698L46.1374 27.9331C46.3082 27.7678 46.4289 27.6937 46.5872 27.5261C47.5129 26.5493 48.6504 25.6021 49.4919 24.7495L52.7894 21.5135C53.0854 21.2274 53.3302 21.021 53.5887 20.719C54.1125 20.9401 61.9953 29.2405 63.0861 30.3495C64.6723 31.9613 66.1992 33.54 67.8308 35.1722L72.4833 39.9938C73.2098 40.8521 74.0877 41.6238 74.8836 42.4239L79.5623 47.2181C82.7584 50.4017 85.7542 53.6913 88.9424 56.8795C89.736 57.6728 90.5285 58.465 91.3119 59.2458C91.7571 59.6903 92.0543 60.0893 92.495 60.5258C92.9129 60.9373 93.259 61.3066 93.6814 61.709C94.4956 62.4829 95.3177 63.3184 96.0065 64.1198C96.6897 64.9131 97.5756 65.7087 98.3647 66.4975C99.1856 67.3193 99.8722 68.0967 100.686 68.9128C101.905 70.1313 104.409 72.8327 105.422 73.7458C106.271 74.5129 107.022 75.3427 107.743 76.1622C108.307 76.8028 108.969 77.3146 109.552 77.9506C109.764 78.182 109.87 78.3188 110.096 78.5445C110.779 79.2261 112.901 81.5754 113.654 82.1852C114.021 82.4815 115.336 82.3345 115.894 82.3345H134.924C137.398 82.3345 142.246 82.4701 144.423 82.3163L150.472 74.7511C150.992 74.0763 151.482 73.5166 151.987 72.8544L155.018 69.0655C155.506 68.4329 155.986 67.9075 156.503 67.2361L182.177 35.2133C182.483 34.8212 182.64 34.6297 182.943 34.2752C184.662 32.2679 186.531 29.807 188.212 27.7017C188.731 27.052 189.184 26.49 189.727 25.8061L192.01 22.9736C192.216 22.7171 192.455 22.2942 192.775 22.0902C193.589 22.8778 196.758 27.3666 197.624 28.4574C199.286 30.5547 200.767 32.701 202.4 34.7642C204.873 37.8873 207.155 41.0903 209.572 44.2671L219.122 56.8863C220.401 58.6029 230.833 72.1933 230.972 72.688L231.133 72.6333C230.451 71.1207 229.621 69.5819 228.868 68.0762L199.198 9.06178C198.102 6.86415 195.506 1.90924 194.693 0L69.4056 15.3537L65.0992 11.4657C64.9057 11.2845 64.7189 11.1762 64.5276 10.9904L59.767 6.65784C58.9198 5.97621 57.9736 4.97999 57.1436 4.26416L56.1028 3.31467C55.8819 3.13344 55.7419 3.02857 55.5312 2.8405L53.4487 0.944932C53.2039 0.688467 52.6653 0.1459 52.3624 0.0512931L47.4446 6.77638C46.9083 7.50361 46.3208 8.28212 45.8129 9.02872L42.5507 13.5334C41.4269 15.0197 40.3759 16.5346 39.2919 18.046C37.0955 21.1077 34.9332 24.028 32.7607 27.052C31.6585 28.5862 30.5141 30.0452 29.4928 31.5509C27.5616 34.3971 25.0293 37.5693 23.0036 40.5044C21.1647 43.1671 18.399 46.8784 16.4769 49.5172C12.1558 55.4489 7.60693 61.6064 3.40875 67.5222C2.95557 68.1605 0.334418 71.6302 0.242188 71.9927Z" fill="white"/>
<path fill-rule="evenodd" clip-rule="evenodd" d="M213.385 135.609C212.949 134.506 210.436 127.672 210.153 127.271L200.38 127.289L200.357 127.828L203.431 127.855C203.527 128.629 203.452 146.922 203.453 148.66C203.454 149.862 203.532 150.777 202.819 151.509C201.865 152.486 200.922 152.165 200.354 152.451L200.348 152.921C201.383 152.941 206.781 153.1 207.296 152.83L207.287 152.405C204.797 152.151 204.064 151.67 204.066 149.039L204.061 129.445C204.532 130.258 208.3 140.461 208.763 141.662C209.548 143.698 210.307 145.72 211.09 147.77C211.857 149.781 212.721 151.884 213.398 153.882L213.979 153.853C214.73 151.913 215.41 149.687 216.064 147.709C216.741 145.669 217.448 143.659 218.125 141.62L222.239 129.516L222.351 152.381C221.695 152.398 219.662 152.281 219.183 152.45L219.173 152.83C219.518 153.022 230.744 152.976 231.985 152.917L231.923 152.39H228.818V127.843L231.94 127.828L231.931 127.271H222.433C222.109 127.8 219.939 134.429 219.527 135.63C219.155 136.715 216.921 143.677 216.636 143.993C216.365 143.652 213.804 136.67 213.385 135.609Z" fill="white"/>
<path fill-rule="evenodd" clip-rule="evenodd" d="M17.7167 127.817C18.5342 127.777 23.3678 127.72 23.7788 127.878C24.1443 128.056 25.3251 131.306 25.5665 131.89C26.1403 133.278 26.6835 134.662 27.2835 136.049C27.6923 136.996 27.304 137.44 26.9852 138.316C26.63 139.293 24.8343 144.501 24.528 144.662L21.0859 136.28C20.6339 135.193 17.6837 128.351 17.7167 127.817ZM38.1587 144.396L37.997 144.705C37.7249 144.597 37.775 144.655 37.6315 144.323C37.4972 143.406 31.0001 128.687 30.9796 127.822C31.6844 127.77 32.9904 127.968 33.5108 127.729C33.4994 127.157 33.6064 127.293 32.1979 127.298C28.6647 127.312 8.26025 127.155 7.43359 127.361C7.48028 127.868 7.43701 127.823 8.04504 127.819C10.5785 127.8 10.4977 127.504 10.9668 128.683L11.9916 131.166C12.4516 132.289 12.8968 133.351 13.3397 134.459C14.2267 136.669 15.1388 138.827 16.044 141.04L20.8195 152.658C20.9368 152.94 21.0335 153.189 21.1508 153.472C21.3 153.833 21.3489 153.915 21.8386 153.83C22.1312 153.407 25.8022 143.086 26.3385 141.654C26.5856 140.993 27.5728 138.034 27.8426 137.686C28.355 138.07 34.0027 153.119 34.654 153.852C35.3292 153.888 35.2313 153.594 35.6708 152.433C38.1325 145.942 40.5305 139.147 42.949 132.601C43.4363 131.281 43.7472 130.15 44.5522 129.275C45.8787 127.833 47.4113 127.993 47.9078 127.732L47.8861 127.347C47.2861 127.212 41.4278 127.236 40.9518 127.363C41.0349 128.354 41.791 127.403 42.7611 128.704C43.3133 129.445 43.3134 130.144 42.9638 131.094C42.4059 132.611 41.8889 134.002 41.3276 135.528C40.9655 136.513 38.1041 144.044 38.1587 144.396Z" fill="#EFA35A"/>
<path fill-rule="evenodd" clip-rule="evenodd" d="M133.432 152.349L133.434 127.858C134.438 127.725 137.264 127.797 138.135 128.096C139.314 128.503 140.302 129.472 140.807 130.453C141.649 132.083 141.305 137.8 141.305 140.035C141.305 141.709 141.305 143.384 141.305 145.058C141.305 146.699 141.486 148.231 140.848 149.659C140.4 150.663 139.349 151.668 138.245 152.078C137.296 152.43 134.52 152.523 133.432 152.349ZM133.033 127.271C131.865 127.272 124.207 127.17 123.75 127.333L123.739 127.713C124.311 128.069 126.119 127.762 126.952 127.856L126.951 152.348C126.151 152.472 124.342 152.237 123.746 152.45L123.734 152.831C124.165 153.069 131.971 152.921 133.127 152.924C136.13 152.934 138.92 153.142 141.513 151.934C142.073 151.673 142.572 151.406 143.049 151.103C143.436 150.857 144.171 150.326 144.4 150.085L145.527 148.847C147.335 146.547 148.427 143.24 148.395 140.035C148.361 136.502 146.736 132.101 144.272 130.018C140.789 127.076 137.589 127.263 133.033 127.271Z" fill="white"/>
<path fill-rule="evenodd" clip-rule="evenodd" d="M174.602 127.384C177.161 127.041 179.244 128.945 179.72 130.921C180.126 132.611 179.894 137.441 179.894 139.465C179.894 141.215 179.978 146.955 179.869 148.247C179.38 154.01 171.756 154.348 170.49 149.267C170.131 147.826 170.357 142.534 170.357 140.698C170.357 137.807 170.262 134.754 170.361 131.883C170.383 131.27 170.536 130.64 170.756 130.127C171.118 129.29 172.084 128.305 172.881 127.89C173.413 127.613 173.909 127.476 174.602 127.384ZM187.112 140.698C187.26 139.107 186.841 136.725 186.363 135.265C185.521 132.7 184.462 131.023 182.642 129.42C178.224 125.53 170.414 126.058 166.642 130.274C166.465 130.472 166.391 130.507 166.233 130.714C166.11 130.877 166.07 130.942 165.909 131.147C162.058 136.045 162.23 144.127 165.981 149.132C170.048 154.559 179.115 154.856 183.603 149.903C184.097 149.359 184.564 148.772 184.977 148.06C186.52 145.406 186.823 143.786 187.112 140.698Z" fill="white"/>
<path fill-rule="evenodd" clip-rule="evenodd" d="M54.4467 55.7159C54.2007 56.3064 54.3681 61.9555 54.3681 63.0725C54.3681 65.5369 54.2964 68.1106 54.3681 70.5602L70.4526 70.5716L70.4389 53.6836L69.922 53.736C69.3242 53.6916 63.1425 54.5396 62.0847 54.7003C60.8049 54.8953 59.4966 55.032 58.2224 55.195C57.1407 55.3341 55.4282 55.464 54.4467 55.7159Z" fill="white"/>
<path fill-rule="evenodd" clip-rule="evenodd" d="M54.3953 87.7071L70.4581 89.238L70.4411 72.9336H54.3555L54.3953 87.7071Z" fill="white"/>
<path fill-rule="evenodd" clip-rule="evenodd" d="M34.6927 85.8207L51.3966 87.4564L51.4319 72.9062L34.6562 72.9336L34.6927 85.8207Z" fill="white"/>
<path fill-rule="evenodd" clip-rule="evenodd" d="M34.6211 70.6247L51.4764 70.5939L51.4434 56.0859L34.5938 58.2995L34.6211 70.6247Z" fill="white"/>
<path fill-rule="evenodd" clip-rule="evenodd" d="M102.085 127.428C102.085 127.935 102.156 127.82 102.683 127.876C105.503 128.176 105.195 130.385 105.195 132.451C105.195 134.968 105.355 138.049 105.191 140.494C104.85 140.343 102.418 136.261 102.022 135.627C101.002 133.993 100.002 132.396 98.966 130.726C96.4302 126.634 97.422 127.289 94.3089 127.289C93.1213 127.289 87 127.153 86.4375 127.389C86.4796 127.852 86.4523 127.811 87.008 127.816C87.5249 127.82 89.3365 127.701 89.5096 127.902C89.6826 128.104 89.5756 146.156 89.5699 148.945C89.5608 153.518 86.3669 151.53 86.458 152.83C86.8622 153.006 92.6716 153.002 93.0974 152.859C93.2067 152.607 93.1862 152.815 93.1509 152.45C91.8563 151.903 90.0846 152.768 90.1016 148.848L90.0994 128.971C90.4854 129.113 90.2497 128.904 90.5229 129.332L104.441 151.691C104.951 152.528 105.075 152.972 105.619 152.888C105.676 152.775 105.654 152.87 105.696 152.637L105.711 151.977C105.628 145.263 105.708 138.155 105.699 131.407C105.698 130.289 105.789 129.279 106.464 128.601C106.803 128.26 107.116 128.102 107.625 127.97C108.805 127.662 108.775 128.123 108.83 127.371C108.484 127.245 102.459 127.136 102.085 127.428Z" fill="#EFA35A"/>
<path fill-rule="evenodd" clip-rule="evenodd" d="M72.0572 127.806C72.5058 127.804 73.1435 127.876 73.4646 127.729C73.4521 127.155 73.3997 127.281 72.7256 127.293C69.0888 127.358 63.9603 127.135 60.6446 127.363C60.697 127.945 60.7881 127.826 61.4496 127.811C64.1163 127.748 63.8123 127.59 63.8089 128.756C63.7861 136.604 63.8749 144.559 63.7975 152.381L62.5894 152.394C61.9415 152.398 60.5205 152.244 60.6355 152.707C60.7141 153.021 61.2606 152.92 61.6421 152.92C64.9612 152.918 70.6271 153.056 73.3963 152.858C73.5101 152.616 73.4953 152.841 73.452 152.466C72.7563 152.234 71.1588 152.504 70.2547 152.36L70.2525 129.705C70.2525 129.362 70.1147 127.953 70.4085 127.867C70.4267 127.863 70.4586 127.848 70.4813 127.842L70.7284 127.801C70.8377 127.792 71.0825 127.8 71.2032 127.801C71.4879 127.804 71.7725 127.806 72.0572 127.806Z" fill="#EFA359"/>
<path fill-rule="evenodd" clip-rule="evenodd" d="M191.05 83.3682L191.064 71.9902L177.254 72.0085V85.3846L191.05 83.3682Z" fill="white"/>
<path fill-rule="evenodd" clip-rule="evenodd" d="M177.25 69.7735L191.071 69.8088C191.024 68.0216 191.272 59.3747 190.978 58.4639L177.246 56.5137L177.25 69.7735Z" fill="white"/>
<path fill-rule="evenodd" clip-rule="evenodd" d="M206.196 81.1925L206.213 71.9883L193.348 72.0054L193.37 83.0516L206.196 81.1925Z" fill="white"/>
<path fill-rule="evenodd" clip-rule="evenodd" d="M193.343 69.7734L206.219 69.8088C206.179 68.3452 206.382 61.3488 206.152 60.6136L193.34 58.791L193.343 69.7734Z" fill="white"/>
<path fill-rule="evenodd" clip-rule="evenodd" d="M49.8417 195.783C49.6618 196.23 49.5821 195.865 49.5799 195.862C49.3248 195.16 47.6271 190.814 47.3413 190.5L46.3302 190.497C46.2209 190.996 46.2231 196.867 46.3381 197.34L47.0282 197.313L47.035 191.785C47.5018 192.3 49.0367 196.877 49.4933 197.354C49.992 197.342 49.8941 197.32 50.0615 196.873L50.977 194.663C51.3744 193.676 51.7774 192.73 52.1475 191.769C52.1623 191.79 52.176 191.821 52.1817 191.839C52.1885 191.858 52.2056 191.89 52.2124 191.912C52.3707 192.442 52.16 196.407 52.2978 197.344L53.0299 197.332L52.989 190.49L51.9425 190.514C51.6727 190.853 49.8463 195.413 49.8417 195.783Z" fill="white"/>
<path fill-rule="evenodd" clip-rule="evenodd" d="M146.257 191.191L148.964 191.189L148.966 196.64L145.373 196.653C145.66 195.756 145.999 195.386 146.133 194.226C146.255 193.18 146.243 192.242 146.257 191.191ZM144.502 197.344L149.784 197.369L149.787 198.998L150.517 198.944L150.483 196.67L149.719 196.612L149.668 190.488L145.556 190.5C145.343 191.424 145.57 193.098 145.352 194.262C145.248 194.823 145.115 195.306 144.893 195.79C143.989 197.766 143.519 195.174 143.771 198.966L144.487 198.978L144.502 197.344Z" fill="white"/>
<path fill-rule="evenodd" clip-rule="evenodd" d="M26.96 191.192L29.6677 191.189L29.6688 196.64L26.0935 196.653C26.3701 195.781 26.7277 195.401 26.8586 194.231C26.977 193.162 26.9417 192.267 26.96 191.192ZM30.4749 196.665C30.3952 196.492 30.4613 196.863 30.3975 196.431L30.3861 190.545C29.2942 190.574 27.1592 190.425 26.2198 190.619C26.1185 191.888 26.3189 193.077 26.057 194.373C25.9477 194.917 25.8133 195.449 25.5879 195.879C25.5332 195.983 25.2702 196.42 25.2247 196.465C24.8933 196.805 24.9878 196.55 24.5039 196.712L24.5244 198.985L25.1894 198.978L25.2008 197.344L30.4852 197.37L30.4897 198.997L31.2196 198.944L31.1855 196.661L30.4749 196.665Z" fill="white"/>
<path fill-rule="evenodd" clip-rule="evenodd" d="M74.1697 191.236L76.8786 191.182L76.882 196.629L73.2907 196.651C73.5902 195.787 73.893 195.371 74.0331 194.249C74.1674 193.163 74.1299 192.318 74.1697 191.236ZM73.3624 193.089C73.3715 193.854 73.2269 194.696 72.9855 195.364C72.4094 196.958 72.1782 196.536 71.6602 196.711L71.6738 198.991L72.4071 198.952L72.4082 197.343L77.6756 197.345L77.687 198.964L78.4112 198.976L78.3588 196.654L77.6506 196.627L77.6392 190.591L73.4865 190.562C73.4911 190.994 73.597 192.908 73.3624 193.089Z" fill="white"/>
<path fill-rule="evenodd" clip-rule="evenodd" d="M199.752 190.524C199.598 191.518 199.719 193.609 199.719 194.721C199.717 197.007 199.442 197.416 200.245 197.359C200.684 197.328 200.655 197.246 200.853 196.932C201.158 196.446 203.903 192.053 204.259 191.778C204.31 192.812 204.263 193.959 204.263 195.006C204.264 197.602 204.043 197.368 204.961 197.335C205.071 196.862 205.072 190.943 204.961 190.495C203.816 190.462 204.077 190.666 203.507 191.532C203.179 192.031 202.842 192.527 202.523 193.009C202.161 193.557 200.894 195.688 200.523 195.961C200.453 194.958 200.508 193.757 200.508 192.732C200.51 190.321 200.723 190.347 199.752 190.524Z" fill="white"/>
<path fill-rule="evenodd" clip-rule="evenodd" d="M116.585 194.344C116.21 190.219 121.592 189.89 122.037 193.497C122.246 195.194 121.191 196.595 119.759 196.793C118.035 197.031 116.723 195.851 116.585 194.344ZM115.772 194.533C116.398 198.871 123.372 198.4 122.847 193.418C122.646 191.514 120.944 190.044 118.734 190.359C116.867 190.627 115.45 192.295 115.772 194.533Z" fill="white"/>
<path fill-rule="evenodd" clip-rule="evenodd" d="M35.7499 194.343C35.3081 190.249 40.8407 189.879 41.2028 193.49C41.6127 197.577 36.1393 197.949 35.7499 194.343ZM34.9517 194.532C35.5677 198.892 42.5089 198.437 42.0135 193.406C41.5683 188.899 34.2343 189.456 34.9517 194.532Z" fill="white"/>
<path fill-rule="evenodd" clip-rule="evenodd" d="M154.58 197.317C155.644 197.445 155.546 197.089 156.05 196.345C156.519 195.652 158.813 191.945 159.061 191.805L159.1 197.343L159.829 197.33L159.782 190.506C159.301 190.463 159.07 190.408 158.813 190.767C158.186 191.639 155.632 195.855 155.29 196.032L155.241 190.501C154.269 190.429 154.553 190.689 154.558 191.69C154.564 193.072 154.477 196.358 154.58 197.317Z" fill="white"/>
<path fill-rule="evenodd" clip-rule="evenodd" d="M95.7008 191.213C95.8226 191.407 95.7452 191.036 95.8044 191.498L95.7281 193.776C95.2818 193.889 94.6248 193.862 94.2661 193.689C93.2971 193.671 92.524 192.758 93.0887 191.795C93.5134 191.072 94.8195 191.116 95.7008 191.213ZM96.5183 190.517C96.0606 190.445 94.5633 190.461 94.0782 190.518C93.2823 190.61 92.7722 190.901 92.4488 191.346C92.1004 191.826 92.0423 192.702 92.3156 193.306C92.6151 193.968 93.0193 194.06 93.7241 194.336C93.5055 195.138 92.1357 196.661 92.0469 197.344C93.1445 197.364 92.8063 197.471 93.8027 195.828C94.7967 194.189 94.3743 194.4 95.7577 194.408C95.7645 194.77 95.7213 197.022 95.7702 197.163C95.8579 197.415 96.4728 197.528 96.5525 197.089C96.6459 196.579 96.5525 190.763 96.5183 190.517Z" fill="white"/>
<path fill-rule="evenodd" clip-rule="evenodd" d="M182.448 193.243C182.429 194.062 182.37 194.871 182.139 195.637C181.806 196.736 181.488 196.579 180.48 196.699L180.41 197.34C183.631 197.95 183.15 193.654 183.24 191.193L185.838 191.228C185.856 192.493 185.671 196.397 185.895 197.337H186.64L186.636 190.595L182.554 190.547L182.555 192.543C182.555 192.622 182.562 192.866 182.554 192.927L182.448 193.243Z" fill="white"/>
<path fill-rule="evenodd" clip-rule="evenodd" d="M127.833 194.144C129.102 194.02 130.956 193.997 130.876 195.479C130.803 196.846 129.058 196.74 127.826 196.704L127.833 194.144ZM129.765 197.236C131.161 197.339 132.114 195.817 131.471 194.486C130.882 193.268 129.242 193.522 127.823 193.413L127.841 191.21C128.422 191.137 129.289 191.187 129.905 191.187C130.652 191.188 131.492 191.442 131.139 190.553C130.681 190.354 127.839 190.439 127.164 190.508L127.156 197.261C128.011 197.309 128.942 197.276 129.765 197.236Z" fill="white"/>
<path fill-rule="evenodd" clip-rule="evenodd" d="M58.6911 194.856C58.7777 194.401 59.8901 191.697 60.1349 191.526L61.4717 194.843L58.6911 194.856ZM56.8477 197.331C57.762 197.398 57.6174 197.39 57.9123 196.673C58.526 195.18 57.8758 195.531 61.8155 195.584C62.0512 196.14 62.2687 196.932 62.6024 197.341L63.322 197.338C63.3026 196.972 60.686 190.842 60.4105 190.494L59.7808 190.495C59.5075 190.923 56.8795 196.988 56.8477 197.331Z" fill="white"/>
<path fill-rule="evenodd" clip-rule="evenodd" d="M87.1042 191.202C87.1156 191.223 87.1372 191.229 87.1407 191.265L87.2021 191.498C87.2739 192.22 87.1236 196.047 87.2101 197.272L87.8625 197.269L87.8637 190.548C86.8389 190.545 84.6823 190.437 83.7839 190.608C83.7019 191.894 83.8579 193.216 83.6769 194.512C83.4708 195.983 83.3182 196.689 81.7879 196.672L81.7344 197.349C84.9317 197.855 84.4819 193.768 84.5252 191.188L87.1042 191.202Z" fill="white"/>
<path fill-rule="evenodd" clip-rule="evenodd" d="M173.525 196.614L173.526 194.124L176.78 194.114L176.746 193.427L173.522 193.428L173.526 191.19C174.261 191.181 174.997 191.186 175.732 191.186C176.483 191.186 177.317 191.443 176.966 190.551C176.538 190.365 173.599 190.465 172.891 190.498C172.609 191.027 172.75 196.287 172.785 197.278L177.063 197.281L177.058 196.716C176.459 196.703 175.858 196.712 175.258 196.712C174.51 196.713 173.849 196.798 173.525 196.614Z" fill="white"/>
<path fill-rule="evenodd" clip-rule="evenodd" d="M195.574 197.187L195.548 196.652L191.979 196.657L191.989 194.122L195.227 194.118L195.194 193.426L191.979 193.435L191.997 191.193C192.771 191.172 194.903 191.335 195.469 191.128L195.479 190.648C194.988 190.408 191.991 190.515 191.254 190.554L191.256 197.273C192.037 197.295 195.051 197.43 195.574 197.187Z" fill="white"/>
<path fill-rule="evenodd" clip-rule="evenodd" d="M106.434 197.318C107.326 197.465 107.162 197.267 107.152 196.431L107.163 191.187L110.776 191.204L110.812 197.347L111.44 197.321L111.438 190.549L106.436 190.565L106.434 197.318Z" fill="white"/>
<path fill-rule="evenodd" clip-rule="evenodd" d="M136.734 196.595L136.736 194.124L140.046 194.115L140.011 193.428L136.726 193.413L136.744 191.189L140.239 191.182L140.199 190.488L136.065 190.508L136.055 197.264L140.315 197.273L140.325 196.727L137.576 196.72C136.881 196.717 136.933 196.785 136.734 196.595Z" fill="white"/>
<path fill-rule="evenodd" clip-rule="evenodd" d="M165.918 191.19L165.94 197.33L166.629 197.332L166.658 191.188L168.905 191.177L168.877 190.491H164.181C163.894 190.491 163.795 190.414 163.67 190.616C163.594 190.74 163.634 191.048 163.703 191.117C163.848 191.264 165.577 191.188 165.918 191.19Z" fill="white"/>
<path fill-rule="evenodd" clip-rule="evenodd" d="M54.3965 87.708L54.3567 72.9345H70.4423L70.4594 89.2389C70.6267 88.955 70.5482 87.577 70.5482 87.2419C70.5482 85.2163 70.6416 73.6184 70.5049 72.8752C69.8331 72.7533 54.9146 72.7601 54.302 72.8821C54.1608 73.5409 54.2508 84.1996 54.2519 86.0097C54.2519 86.5887 54.1415 87.5656 54.3965 87.708Z" fill="white"/>
<path fill-rule="evenodd" clip-rule="evenodd" d="M34.6911 85.8217L34.6547 72.9346L51.4303 72.9072L51.395 87.4573C51.5738 87.1872 51.5191 86.9455 51.5146 86.5785C51.4907 84.3433 51.6125 73.6595 51.4713 72.8764C50.8553 72.7408 35.3197 72.7408 34.608 72.8821C34.4179 73.7735 34.5852 82.662 34.5545 85.1594C34.5443 85.9698 34.583 85.7498 34.6911 85.8217Z" fill="white"/>
<path fill-rule="evenodd" clip-rule="evenodd" d="M54.4459 55.7153C54.2364 55.8339 54.3241 55.5626 54.2501 56.0516C54.2444 56.0835 54.2547 56.4665 54.2547 56.5315C54.2831 58.8636 54.1579 69.813 54.2991 70.6553L70.5042 70.6154C70.6454 69.8871 70.6374 54.3213 70.4951 53.634C70.1854 53.585 70.1228 53.5656 69.9212 53.7354L70.4382 53.683L70.4518 70.571L54.3674 70.5596C54.2956 68.11 54.3674 65.5363 54.3674 63.0719C54.3674 61.9549 54.2 56.3058 54.4459 55.7153Z" fill="white"/>
<path fill-rule="evenodd" clip-rule="evenodd" d="M191.05 83.3681C191.185 83.2062 191.099 83.5653 191.175 83.0751L191.172 81.9342C191.174 79.9474 191.283 72.7732 191.129 71.9274C190.343 71.7861 180.16 71.9069 178.005 71.8807C177.693 71.8773 177.392 71.8032 177.254 72.0084L191.064 71.9901L191.05 83.3681Z" fill="#665A3D"/>
<path fill-rule="evenodd" clip-rule="evenodd" d="M206.196 81.1891C206.335 81.0239 206.272 81.2199 206.324 80.8917L206.319 80.036C206.318 78.394 206.415 72.6774 206.277 71.9276C205.598 71.8034 197.832 71.8809 196.468 71.8809C196.135 71.8809 193.529 71.7407 193.348 72.0051L206.213 71.988L206.196 81.1891Z" fill="white"/>
<path fill-rule="evenodd" clip-rule="evenodd" d="M177.25 69.7724C177.462 69.9822 177.387 69.9001 178.102 69.8933C180.205 69.8728 190.4 69.9856 191.128 69.8557C191.285 69.0338 191.166 62.8798 191.166 61.1757C191.166 60.5443 191.31 58.5746 190.979 58.4629C191.272 59.3736 191.024 68.0205 191.072 69.8078L177.25 69.7724Z" fill="white"/>
<path fill-rule="evenodd" clip-rule="evenodd" d="M193.344 69.77C193.493 69.917 193.279 69.8737 193.715 69.9033C194.944 69.9888 206.069 69.8896 206.274 69.8532C206.409 69.1569 206.312 63.2796 206.313 61.6502C206.313 61.2776 206.426 60.7603 206.152 60.6133C206.382 61.3482 206.18 68.3422 206.22 69.8053L193.344 69.77Z" fill="#5C513C"/>
<path fill-rule="evenodd" clip-rule="evenodd" d="M202.513 189.309C201.788 189.414 201.645 188.96 201.434 188.561C200.794 188.605 200.824 188.834 201.162 189.36C201.713 190.217 203.815 190.166 203.771 188.589C202.872 188.525 203.378 189.185 202.513 189.309Z" fill="white"/>
<path fill-rule="evenodd" clip-rule="evenodd" d="M106.434 197.318L106.437 190.564L111.439 190.548L111.441 197.32C111.505 197.197 111.464 197.443 111.532 197.092L111.541 196.428C111.531 195.125 111.621 191.159 111.491 190.457L106.375 190.506C106.233 191.276 106.331 193.083 106.331 193.964C106.331 194.645 106.207 196.908 106.434 197.318Z" fill="white"/>
<path fill-rule="evenodd" clip-rule="evenodd" d="M87.1054 191.201L87.1476 197.361L87.9196 197.331C88.0175 196.815 88.0175 190.97 87.9139 190.502C87.43 190.398 85.4977 190.46 84.7439 190.458C84.597 190.458 84.2953 190.437 84.17 190.449C83.7544 190.485 83.9161 190.407 83.7852 190.607C84.6835 190.436 86.8401 190.545 87.8649 190.547L87.8638 197.268L87.2113 197.271C87.1248 196.046 87.2751 192.22 87.2034 191.497L87.1419 191.265C87.1385 191.228 87.1168 191.223 87.1054 191.201Z" fill="white"/>
<path fill-rule="evenodd" clip-rule="evenodd" d="M136.732 196.595C136.93 196.785 136.879 196.717 137.574 196.72L140.322 196.727L140.313 197.273L136.052 197.264L136.063 190.508C136.006 190.617 136.035 190.398 135.973 190.741C135.867 191.317 135.989 197.293 135.999 197.372L140.396 197.332L140.37 196.624L136.732 196.595Z" fill="white"/>
<path fill-rule="evenodd" clip-rule="evenodd" d="M173.527 196.615C173.851 196.8 174.512 196.715 175.26 196.713C175.86 196.713 176.461 196.704 177.06 196.718L177.065 197.283L172.787 197.28C172.751 196.288 172.611 191.029 172.893 190.5C172.71 190.596 172.686 190.277 172.699 191.311C172.702 191.595 172.7 191.881 172.7 192.165C172.701 192.733 172.701 193.302 172.701 193.871C172.7 194.831 172.608 196.461 172.735 197.377L177.14 197.334L177.112 196.619L173.527 196.615Z" fill="white"/>
<path fill-rule="evenodd" clip-rule="evenodd" d="M195.577 197.187C195.055 197.43 192.041 197.294 191.26 197.272L191.257 190.553C191.994 190.514 194.991 190.407 195.483 190.648C195.355 190.402 195.569 190.469 195.057 190.441L191.164 190.504L191.211 197.333C191.796 197.441 192.806 197.38 193.44 197.381C194.094 197.381 195.485 197.52 195.577 197.187Z" fill="white"/>
<path fill-rule="evenodd" clip-rule="evenodd" d="M129.767 197.236C128.944 197.276 128.014 197.309 127.158 197.261L127.166 190.508C126.935 190.953 127.074 197.147 127.1 197.339C127.488 197.387 129.646 197.486 129.767 197.236Z" fill="white"/>
<path fill-rule="evenodd" clip-rule="evenodd" d="M30.4778 196.665L30.4459 190.503C29.8936 190.385 28.9224 190.463 28.3166 190.462C27.9375 190.462 27.5583 190.464 27.1803 190.463C27.0379 190.462 26.7237 190.441 26.6052 190.452C26.1657 190.492 26.349 190.41 26.2227 190.619C27.162 190.425 29.297 190.574 30.3889 190.545L30.4003 196.431C30.4641 196.863 30.3981 196.492 30.4778 196.665Z" fill="#5D5233"/>
<path fill-rule="evenodd" clip-rule="evenodd" d="M182.449 193.242L182.555 192.927C182.563 192.865 182.556 192.621 182.556 192.543L182.555 190.546L186.637 190.594C186.406 190.37 186.051 190.452 185.579 190.454C184.826 190.46 182.99 190.407 182.465 190.504L182.449 193.242Z" fill="white"/>
<path fill-rule="evenodd" clip-rule="evenodd" d="M73.3594 193.089C73.5939 192.907 73.488 190.994 73.4835 190.562L77.6361 190.591C77.4835 190.415 77.693 190.535 77.4448 190.464C77.4425 190.463 77.1898 190.448 77.175 190.447L73.3958 190.504L73.3594 193.089Z" fill="white"/>
<path fill-rule="evenodd" clip-rule="evenodd" d="M94.2656 193.689C94.6243 193.862 95.2813 193.889 95.7276 193.776L95.8039 191.498C95.7447 191.036 95.8221 191.407 95.7003 191.213L95.7037 193.707L94.2656 193.689Z" fill="#776A55"/>
<path fill-rule="evenodd" clip-rule="evenodd" d="M38.1561 144.395C38.073 144.444 37.9842 144.522 37.9705 144.497C37.9557 144.472 37.9045 144.513 37.8669 144.536L37.6289 144.322C37.7724 144.654 37.7223 144.596 37.9944 144.704L38.1561 144.395Z" fill="#E7B888"/>
<path fill-rule="evenodd" clip-rule="evenodd" d="M231.132 72.6339L230.971 72.6886C231.095 72.822 230.763 72.8744 231.123 72.8071C231.446 72.4129 231.145 72.651 231.132 72.6339Z" fill="#8E846F"/>
<path fill-rule="evenodd" clip-rule="evenodd" d="M0.279142 72.0343L0.242705 71.9922C0.017254 72.1449 0.110623 71.966 0.0195312 72.2782C0.273448 72.1791 0.159584 72.2508 0.279142 72.0343Z" fill="#504732"/>
<path fill-rule="evenodd" clip-rule="evenodd" d="M49.5781 195.864C49.5804 195.867 49.6601 196.232 49.84 195.785L49.5781 195.864Z" fill="#675A46"/>
</g>
<defs>
<clipPath id="clip0_363_4102">
<rect width="232" height="199" fill="white"/>
</clipPath>
</defs>
</svg>
