<svg width="40" height="40" viewBox="0 0 40 40" fill="none" xmlns="http://www.w3.org/2000/svg">
<path d="M37.1875 28.1875C36.8438 28.1875 36.4375 28.25 36 28.375L29.3438 30.6875C29.3438 30.6562 29.3438 30.6562 29.3438 30.625C29.3438 30.5937 29.3438 30.5625 29.3438 30.5312C29.3438 30.4687 29.3438 30.4375 29.3438 30.375C29.3438 30.3437 29.3438 30.3125 29.3438 30.3125V30.2812V30.25C29.3438 30.1875 29.3125 30.0937 29.3125 30.0312C29.3125 30.0312 29.3125 30.0312 29.3125 30C29.0313 28.7812 27.9062 27.875 26.5938 27.875H21.3125C18.875 24.7812 13.2188 24.75 12.9688 24.75H8.90625V23.25H0.625V37.0312H8.90625V35.7188L19.1562 38.9687C19.2188 39 20.75 39.4375 22.5 39.4375C23.5625 39.4375 24.5 39.2812 25.3125 38.9375C27.375 38.0937 35.6562 33.6562 38.1562 32.3125C38.8438 31.9375 39.7812 30.875 39.25 29.5937C38.8438 28.6562 38.1562 28.1875 37.1875 28.1875ZM7.65625 35.75H1.875V24.4688H7.65625V24.6875V35.25V35.75ZM37.5312 31.1875C35.0625 32.5313 26.8125 36.9062 24.8125 37.75C24.1875 38 23.4062 38.1562 22.5 38.1562C20.9062 38.1562 19.5 37.75 19.5 37.75L8.875 34.4062V25.9375H12.9375C13 25.9375 18.5 25.9687 20.4375 28.8125L20.625 29.0937H26.5312C27.3125 29.0937 27.9688 29.6563 28.0625 30.4063V30.4375C28.0625 30.5 28.0625 30.5312 28.0625 30.5938C28.0625 30.6562 28.0625 30.7187 28.0312 30.7812C28.0312 30.8125 28.0312 30.8438 28.0312 30.875C28.0312 30.9375 28 31 27.9688 31.0625C27.9688 31.0938 27.9688 31.125 27.9375 31.125C27.9062 31.2187 27.875 31.2812 27.8125 31.3438C27.5625 31.7188 27.125 31.9688 26.625 31.9688H18.5V33.2188H26.625C27.4688 33.2188 28.25 32.8125 28.75 32.1875L36.3438 29.5625C36.6562 29.4687 36.9375 29.4375 37.1875 29.4375C37.6562 29.4375 37.875 29.5937 38.0625 30.0312C38.3125 30.625 37.7188 31.0938 37.5312 31.1875Z" fill="#263238"/>
<path d="M32.9375 22.8125V11L34.4062 12.4688L35.2812 11.5937L32.9375 9.25V2.9375H29.1563V5.4375L24.6875 1L14.0938 11.5937L14.9688 12.4688L16.4375 11V22.8125H32.9375ZM30.4063 8.46875V4.1875H31.6875V9.71875V9.75V21.5625H17.6875V9.75L24.6875 2.75L30.4063 8.46875Z" fill="#263238"/>
</svg>
