<svg width="40" height="40" viewBox="0 0 40 40" fill="none" xmlns="http://www.w3.org/2000/svg">
<path d="M1.875 32.5H0.625C0.625 35.4375 3 37.8125 5.9375 37.8125H39.375V5.3125H6.5625V0.625H5.9375C3 0.625 0.625 3 0.625 5.9375V32.5H1.875C1.875 30.25 3.6875 28.4375 5.9375 28.4375H6.5625V6.5625H38.125V36.5625H5.9375C3.6875 36.5625 1.875 34.75 1.875 32.5ZM5.3125 14.5312C5.3125 20 5.3125 25.4688 5.3125 27.2188C3.9375 27.375 2.71875 28.0625 1.875 29.0625V5.9375C1.875 3.90625 3.375 2.21875 5.3125 1.9375V14.5312Z" fill="#263238"/>
<path d="M15 9.0625L14.8437 9.15625C13.0312 10.1875 11.9375 12.125 11.9375 14.2188C11.9375 14.4062 11.9375 14.5938 11.9687 14.8125C11.9687 14.875 12 14.9375 12 15.0312C12.0313 15.1562 12.0312 15.2812 12.0625 15.375C12.0937 15.4688 12.0937 15.5312 12.125 15.625C12.1562 15.7188 12.1875 15.8438 12.2187 15.9375C12.25 16.0312 12.2813 16.125 12.3125 16.1875C12.3438 16.2812 12.375 16.375 12.4062 16.4375C12.4375 16.5312 12.5 16.625 12.5312 16.7188C12.5625 16.7812 12.5938 16.8437 12.625 16.9062C12.6875 17.0312 12.75 17.125 12.8125 17.25C12.8437 17.2812 12.8438 17.3437 12.875 17.375C12.9688 17.5312 13.0625 17.6562 13.1875 17.7812C13.1875 17.7812 13.1875 17.7812 13.1875 17.8125C13.3438 18.0312 13.5313 18.2188 13.7188 18.4062L14 18.7188C14.7187 19.4688 15.2813 21.5625 15.2813 22.9063V32.1562C15.2813 33.5312 16.4062 34.6562 17.7812 34.6562C19.1563 34.6562 20.2812 33.5312 20.2812 32.1562V22.875C20.2812 21.5312 20.8125 19.4375 21.5625 18.6875L21.8438 18.375C22.0312 18.1875 22.2187 18 22.375 17.7812C22.375 17.7812 22.375 17.7812 22.375 17.75C22.4687 17.625 22.5625 17.4688 22.6562 17.3438C22.6875 17.3125 22.7187 17.25 22.7187 17.2188C22.7812 17.0937 22.8438 17 22.9063 16.875C22.9375 16.8125 22.9687 16.75 23 16.6875C23.0312 16.5938 23.0938 16.5 23.125 16.4062C23.1562 16.3125 23.1875 16.2188 23.2188 16.1562C23.25 16.0625 23.2812 15.9688 23.3125 15.9063C23.3437 15.8125 23.375 15.7188 23.4062 15.5938C23.4375 15.5 23.4375 15.4375 23.4687 15.3437C23.5 15.2187 23.5 15.0938 23.5313 14.9688C23.5313 14.9063 23.5625 14.8438 23.5625 14.75C23.5938 14.5625 23.5938 14.375 23.5938 14.1562C23.5938 12.0937 22.4687 10.1563 20.6875 9.09375L20.5312 9.0625H19.5312V13.9062C18.4687 14.6562 17.0312 14.6562 16 13.9062V9.0625H15ZM19 22.875V32.125C19 32.8125 18.4375 33.375 17.75 33.375C17.0625 33.375 16.5 32.8125 16.5 32.125V22.875C16.5 22.0625 16.3125 20.8438 15.9375 19.75C16.5 19.9375 17.125 20.0312 17.75 20.0312C18.375 20.0312 19 19.9375 19.5625 19.75C19.1875 20.8438 19 22.0625 19 22.875ZM17.75 15.7188C18.7187 15.7188 19.7187 15.375 20.5 14.7187L20.7812 14.5938V10.75C21.75 11.625 22.3438 12.875 22.3438 14.1875C22.3438 14.3438 22.3438 14.5 22.3125 14.6563C22.3125 14.7188 22.2813 14.7813 22.2813 14.8125C22.2813 14.9063 22.25 15 22.25 15.0938C22.25 15.1562 22.2188 15.2188 22.1875 15.3125C22.1562 15.375 22.1563 15.4688 22.125 15.5312C22.0938 15.625 22.0625 15.6875 22.0312 15.7812C22 15.8438 22 15.9062 21.9688 15.9375C21.9375 16.0312 21.875 16.125 21.8438 16.2188C21.8125 16.25 21.8125 16.2812 21.7812 16.3438C21.7187 16.4688 21.6562 16.5625 21.5937 16.6562C21.5937 16.6562 21.5938 16.6875 21.5625 16.6875C21.4062 16.9375 21.2188 17.1562 21.0313 17.375L20.9375 17.5C20.125 18.2812 19 18.7812 17.7812 18.7812C16.5625 18.7812 15.4375 18.2812 14.625 17.5L14.4687 17.3438C14.2812 17.125 14.0937 16.9062 13.9375 16.6562C13.9375 16.6562 13.9375 16.625 13.9062 16.625C13.8437 16.5312 13.7813 16.4062 13.7188 16.2812C13.6875 16.25 13.6875 16.2188 13.6562 16.1562C13.625 16.0625 13.5625 15.9688 13.5312 15.875C13.5 15.8125 13.5 15.75 13.4687 15.7188C13.4375 15.625 13.4062 15.5625 13.375 15.4688C13.3437 15.4062 13.3437 15.3125 13.3125 15.25C13.2812 15.1875 13.2813 15.125 13.25 15.0312C13.2188 14.9375 13.2187 14.8438 13.2187 14.75C13.2187 14.6875 13.1875 14.625 13.1875 14.5938C13.1875 14.4375 13.1562 14.2812 13.1562 14.125C13.1562 12.8125 13.75 11.5313 14.7187 10.6875V14.4062L14.9375 14.5938C15.75 15.375 16.75 15.7188 17.75 15.7188Z" fill="#263238"/>
<path d="M25.8125 24.0625L25.4687 24.25V31.9375C25.4687 33.4375 26.6875 34.6562 28.1875 34.6562C29.6875 34.6562 30.9062 33.4375 30.9062 31.9375V24.2188L30.5312 24.0625C30.25 23.9375 30.2187 23.6875 30.2187 23.5938C30.2187 23.5 30.25 23.25 30.5312 23.125L30.875 22.9375V20.875H28.7812V11.6875H27.5312V20.8437H25.4375V22.9062L25.7812 23.0938C26.0625 23.2188 26.0937 23.4688 26.0937 23.5625C26.0937 23.6562 26.0937 23.9062 25.8125 24.0625ZM26.7187 24.9375C27.125 24.5938 27.375 24.0938 27.375 23.5625C27.375 23.0312 27.125 22.5312 26.7187 22.1875V22.0937H29.625V22.1875C29.2188 22.5312 28.9687 23.0312 28.9687 23.5625C28.9687 24.0938 29.2188 24.5938 29.625 24.9375V31.9062C29.625 32.7187 28.9687 33.375 28.1562 33.375C27.3437 33.375 26.6875 32.7187 26.6875 31.9062V24.9375H26.7187Z" fill="#263238"/>
<path d="M28.9688 9.0625H27.4062V10.75H28.9688V9.0625Z" fill="#263238"/>
</svg>
