<svg width="40" height="40" viewBox="0 0 40 40" fill="none" xmlns="http://www.w3.org/2000/svg">
<path fill-rule="evenodd" clip-rule="evenodd" d="M8.03312 14.6146C7.38312 14.4071 5.96125 14.0977 4.80937 14.8671C3.9175 15.4627 3.11313 16.734 3.11063 19.3746H2.5C2.155 19.3746 1.875 19.6546 1.875 19.9996V30.6246C1.875 30.9696 2.155 31.2496 2.5 31.2496H3.75C4.2475 31.2496 4.72438 31.0521 5.07562 30.7002C5.4275 30.349 5.625 29.8721 5.625 29.3746V27.1871H8.4375C9.0275 27.1871 9.555 26.914 9.89812 26.4871C9.93062 26.4652 9.96125 26.4396 9.99 26.4109L16.8981 19.5027L28.0025 22.4784C28.3356 22.5677 28.6781 22.3696 28.7675 22.0365L29.0331 21.0465L31.2062 21.6284C32.2069 21.8965 33.235 21.3034 33.5025 20.3027L34.2006 17.699L36.7806 15.2952C37.1144 14.984 37.2537 14.5159 37.1431 14.0734C37.0331 13.6302 36.6912 13.2815 36.25 13.1634L9.37812 5.94524C9.05812 5.85899 8.71687 5.90399 8.42937 6.06961C8.14187 6.23524 7.9325 6.50836 7.84687 6.82836L6.3 12.5996C6.21125 12.9334 6.40875 13.2759 6.74187 13.3652L8.28125 13.7777L8.03312 14.6146ZM3.74625 20.6246H3.125V29.9996H3.75C3.91562 29.9996 4.075 29.934 4.19187 29.8165C4.30937 29.6996 4.375 29.5402 4.375 29.3746V21.2496C4.375 21.084 4.30937 20.9246 4.19187 20.8077C4.075 20.6909 3.91625 20.6246 3.75125 20.6246C3.74937 20.6246 3.7475 20.6246 3.74625 20.6246ZM5.625 24.6871V25.9371H6.66937C6.6 25.7415 6.5625 25.5315 6.5625 25.3121C6.5625 25.0927 6.6 24.8827 6.66937 24.6871H5.625ZM8.4375 24.6871C8.7825 24.6871 9.0625 24.9671 9.0625 25.3121C9.0625 25.6571 8.7825 25.9371 8.4375 25.9371C8.0925 25.9371 7.8125 25.6571 7.8125 25.3121C7.8125 24.9671 8.0925 24.6871 8.4375 24.6871ZM10.1294 24.504L15.5037 19.1296L14.11 18.7559L9.24562 23.6202C9.63187 23.8046 9.945 24.1177 10.1294 24.504ZM7.68062 15.804C7.28062 15.6546 6.295 15.3784 5.50312 15.9071C4.80875 16.3709 4.33687 17.409 4.36 19.4765C4.62687 19.5684 4.8725 19.7202 5.07562 19.924C5.4275 20.2752 5.625 20.7521 5.625 21.2496V23.4371H7.66062L12.7156 18.3821L7.96312 17.109C7.80062 17.0652 7.66187 16.9577 7.57937 16.8109C7.4975 16.6634 7.47812 16.4896 7.52562 16.3277L7.68062 15.804ZM9.48875 14.1015L8.90625 16.0677L27.7219 21.109L28.8931 16.7384L27.0806 16.2527L25.5012 18.034C25.3444 18.2109 25.1006 18.2846 24.8719 18.2234L9.48875 14.1015ZM32.8775 17.8059L32.2956 19.979C32.2062 20.3127 31.8631 20.5109 31.53 20.4215L29.3562 19.839L30.1006 17.0615L32.8775 17.8059ZM33.4706 16.6709L35.9287 14.3809C35.93 14.379 35.9306 14.3771 35.9306 14.3746C35.93 14.3727 35.9281 14.3709 35.9262 14.3702L9.05437 7.15211L7.66937 12.3196L8.4 12.5159C8.40687 12.5171 8.41375 12.519 8.42062 12.5209L24.8225 16.9159L26.4019 15.134C26.5587 14.9571 26.8025 14.884 27.0312 14.9452L33.4706 16.6709ZM17.5344 11.3396C17.9744 11.4571 18.2356 11.9102 18.1181 12.3496C18 12.7896 17.5475 13.0509 17.1075 12.9334C16.6675 12.8152 16.4062 12.3627 16.5244 11.9227C16.6419 11.4827 17.0944 11.2215 17.5344 11.3396ZM14.3469 10.4852C14.7869 10.6034 15.0481 11.0559 14.93 11.4959C14.8125 11.9352 14.3594 12.1971 13.92 12.079C13.48 11.9615 13.2187 11.5084 13.3362 11.0684C13.4544 10.629 13.9069 10.3671 14.3469 10.4852ZM11.1594 9.63086C11.5994 9.74899 11.8606 10.2015 11.7425 10.6415C11.625 11.0815 11.1719 11.3427 10.7325 11.2252C10.2925 11.1071 10.0312 10.6546 10.1487 10.2146C10.2669 9.77461 10.7194 9.51336 11.1594 9.63086Z" fill="#263238"/>
</svg>
